:SAMPLES-PER-SECOND 30
:FULLY-SPECIFIED
:DEGREES
323
root  34.84007768 36.51351628 -14.7331433 8.382395744 -3.843195438 3.571546316
lowerback  -8.002790451 -0.476001054 -0.2782023847
upperback  -3.419320107 -0.2023780048 -3.28847003
thorax  0.9403330088 0.03377870098 -3.255120039
lowerneck  -13.54459953 1.444030046 1.627879977
upperneck  15.32719994 1.026379943 5.354159832
head  6.906350136 1.200049996 1.582440019
lclavicle  0 -4.497500157e-015 -2.743230041e-014
lhumerus  -46.93790054 27.67580032 66.22750092
lradius  0.004719055258 -6.507048965e-006 30.97270012
lwrist  4.824992743e-007 -3.790274832e-007 -26.54630089
lhand  -0 -36.66989899 -10.61670017
lfingers  90 7.125020027 -90
lthumb  94.69613868 -25.46168404 100.8177315
rclavicle  0 -4.497500157e-015 -2.743230041e-014
rhumerus  -54.43970108 -22.37449837 -56.77299881
rradius  -5.16745672e-007 2.214343908e-008 74.54579926
rwrist  -7.499573258e-005 0.03438235447 -172.2850037
rhand  -1.775211159e-031 5.976439953 -6.850729942
rfingers  -90 -7.125020027 -90
rthumb  -84.3371337 -9.21793115 -58.24221566
rfemur  -11.51922512 15.97702789 13.10035515
rtibia  -1.011181235 -0.6977578402 20.33393478
rfoot  0.3225669265 -21.32919312 -36.86517334
rtoes  3.979890484 19.61592256 -101.7083841
lfemur  -7.11975956 -17.30809784 -20.68959045
ltibia  3.184062481 -0.6530011892 13.71964455
lfoot  0.8091344833 -23.74131775 37.06415558
ltoes  -8.565133015 -18.14139439 -115.814107
324
root  34.84216224 36.51321892 -14.73186223 8.398647308 -3.841173887 3.556321144
lowerback  -8.045150757 -0.461807102 -0.3237677217
upperback  -3.39628005 -0.1821510047 -3.251929998
thorax  0.989143014 0.04362919927 -3.189949989
lowerneck  -13.56280041 1.436149955 1.538460016
upperneck  15.32680035 1.030979991 5.349820137
head  6.908309937 1.195469975 1.596180081
lclavicle  0 -4.497500157e-015 -2.743230041e-014
lhumerus  -46.89210129 27.76009941 66.31210327
lradius  0.004719055258 -6.507048965e-006 30.91870117
lwrist  4.824992743e-007 -3.790274832e-007 -26.63260078
lhand  -4.402590858e-031 -36.67309952 -10.61380005
lfingers  90 7.125020027 -90
lthumb  94.69699428 -25.45868575 100.8208257
rclavicle  0 -4.497500157e-015 -2.743230041e-014
rhumerus  -54.06349945 -22.77560043 -57.03070068
rradius  -5.16745672e-007 2.214343908e-008 72.84700012
rwrist  -7.499573258e-005 0.03438235447 -172.6000061
rhand  -1.775478597e-031 6.058320045 -6.753769875
rfingers  -90 -7.125020027 -90
rthumb  -84.26462037 -9.305458452 -58.15394139
rfemur  -11.53257942 15.94666958 13.10076141
rtibia  -0.9957140684 -0.6899996996 20.32752037
rfoot  0.3224546015 -21.33051491 -36.84992218
rtoes  3.992120078 19.61353132 -101.7448149
lfemur  -7.132662773 -17.27871323 -20.66317368
ltibia  3.171515465 -0.6264284849 13.7072258
lfoot  0.7991663814 -23.77996826 37.05999374
ltoes  -8.579709697 -18.13468671 -115.8609311
325
root  34.84479348 36.51324295 -14.73064272 8.407683372 -3.841252804 3.519197226
lowerback  -8.093400002 -0.4254969954 -0.3725935221
upperback  -3.383339882 -0.1290969998 -3.243740082
thorax  1.032320023 0.07080160081 -3.149490118
lowerneck  -13.57699966 1.400030017 1.446320057
upperneck  15.32209969 0.9940469861 5.377439976
head  6.909080029 1.174289942 1.616660118
lclavicle  0 -4.497500157e-015 -2.743230041e-014
lhumerus  -46.80739975 28.15719986 66.1473999
lradius  0.004719055258 -6.507048965e-006 30.61480141
lwrist  4.824992743e-007 -3.790274832e-007 -27.08049965
lhand  -4.407447509e-031 -36.75780106 -10.6008997
lfingers  90 7.125020027 -90
lthumb  94.73388122 -25.44312943 100.9102259
rclavicle  0 -4.497500157e-015 -2.743230041e-014
rhumerus  -53.71089935 -23.13669968 -57.25630188
rradius  -5.16745672e-007 2.214343908e-008 71.23829651
rwrist  -7.499573258e-005 0.03438235447 -171.9680023
rhand  -1.77423454e-031 5.667210102 -6.921160221
rfingers  -90 -7.125020027 -90
rthumb  -84.45199075 -9.138467838 -58.5500707
rfemur  -11.5285778 15.96123505 13.12660027
rtibia  -0.973528862 -0.6563188434 20.29249763
rfoot  0.3490652442 -21.27731514 -36.83408356
rtoes  4.00608947 19.61079051 -101.7864337
lfemur  -7.192427158 -17.24495316 -20.5890255
ltibia  3.109688759 -0.6048265696 13.78926086
lfoot  0.7929877043 -23.85268974 37.03553772
ltoes  -8.567433033 -18.14033695 -115.8214941
326
root  34.84571262 36.51298463 -14.72955388 8.404495239 -3.831497908 3.510191917
lowerback  -8.141539574 -0.3923310339 -0.3794065416
upperback  -3.374910116 -0.08308870345 -3.241480112
thorax  1.070060015 0.0941400975 -3.139489889
lowerneck  -13.60739994 1.378319979 1.395539999
upperneck  15.32909966 0.968922019 5.400909901
head  6.916649818 1.161689997 1.630620003
lclavicle  0 -4.497500157e-015 -2.743230041e-014
lhumerus  -46.72100067 28.25690079 66.16359711
lradius  0.004719055258 -6.507048965e-006 30.52320099
lwrist  4.824992743e-007 -3.790274832e-007 -27.20100021
lhand  -0 -36.77349854 -10.6395998
lfingers  90 7.125020027 -90
lthumb  94.74932795 -25.48056537 100.9304803
rclavicle  0 -4.497500157e-015 -2.743230041e-014
rhumerus  -53.33209991 -23.43350029 -57.53179932
rradius  -5.16745672e-007 2.214343908e-008 69.72100067
rwrist  -7.499573258e-005 0.03438235447 -170.8939972
rhand  -1.77381431e-031 5.528739929 -6.935200214
rfingers  -90 -7.125020027 -90
rthumb  -84.49372396 -9.117800826 -58.68641378
rfemur  -11.54273033 16.0094223 13.13877583
rtibia  -0.9703396559 -0.6196274161 20.32619286
rfoot  0.3326337636 -21.23464203 -36.8706398
rtoes  3.980068494 19.61588781 -101.7089144
lfemur  -7.151584625 -17.28591156 -20.59576225
ltibia  3.122127056 -0.6075443029 13.73805237
lfoot  0.7711834311 -23.8142662 37.04922867
ltoes  -8.522143482 -18.16109392 -115.6761106
327
root  34.84593489 36.51337811 -14.72862274 8.408237457 -3.831776857 3.507137775
lowerback  -8.185138702 -0.3540969789 -0.408685416
upperback  -3.35649991 -0.02952669933 -3.235759974
thorax  1.116080046 0.1210919991 -3.112430096
lowerneck  -13.64850044 1.341950059 1.371829987
upperneck  15.34500027 0.9199010134 5.411690235
head  6.929870129 1.138620019 1.633999944
lclavicle  0 -4.497500157e-015 -2.743230041e-014
lhumerus  -46.62639999 28.23670006 66.28659821
lradius  0.004719055258 -6.507048965e-006 30.54570007
lwrist  4.824992743e-007 -3.790274832e-007 -27.12050056
lhand  -4.406436621e-031 -36.74020004 -10.60459995
lfingers  90 7.125020027 -90
lthumb  94.72646517 -25.44737157 100.8918129
rclavicle  0 -4.497500157e-015 -2.743230041e-014
rhumerus  -52.97969818 -23.7553997 -57.79639816
rradius  -5.16745672e-007 2.214343908e-008 68.1292038
rwrist  -7.499573258e-005 0.03438235447 -170.1950073
rhand  -1.773409338e-031 5.391880035 -7.113359928
rfingers  -90 -7.125020027 -90
rthumb  -84.62088451 -8.956782527 -58.83468779
rfemur  -11.55116749 15.98766518 13.13633633
rtibia  -0.9668720365 -0.6310204864 20.33216667
rfoot  0.3274478614 -21.26880836 -36.85530472
rtoes  3.971357423 19.61758648 -101.6829674
lfemur  -7.137933254 -17.27043724 -20.59943199
ltibia  3.131973982 -0.5971838832 13.71541786
lfoot  0.7709959149 -23.82502174 37.04852676
ltoes  -8.514551669 -18.16455998 -115.6517559
328
root  34.84528309 36.514096 -14.72758796 8.415417671 -3.809728622 3.514951706
lowerback  -8.211111069 -0.323102057 -0.432110846
upperback  -3.349570036 0.01463229954 -3.237999916
thorax  1.13993001 0.1435929984 -3.097640038
lowerneck  -13.65569973 1.315809965 1.424679995
upperneck  15.33279991 0.8758010268 5.401800156
head  6.928740025 1.119899988 1.61777997
lclavicle  0 -4.497500157e-015 -2.743230041e-014
lhumerus  -46.53779984 28.13640022 66.40529633
lradius  0.004719055258 -6.507048965e-006 30.57169914
lwrist  4.824992743e-007 -3.790274832e-007 -26.99629974
lhand  -4.406218521e-031 -36.7364006 -10.62100029
lfingers  90 7.125020027 -90
lthumb  94.72809026 -25.46358741 100.8891637
rclavicle  0 -4.497500157e-015 -2.743230041e-014
rhumerus  -52.76240158 -24.33720016 -57.99319839
rradius  -5.16745672e-007 2.214343908e-008 66.58360291
rwrist  -7.499573258e-005 0.03438235447 -169.1199951
rhand  -1.773848328e-031 5.54008007 -7.216340065
rfingers  -90 -7.125020027 -90
rthumb  -84.63885889 -8.87831571 -58.69849448
rfemur  -11.53382492 15.95252228 13.12569046
rtibia  -0.9568165541 -0.6503849626 20.31022644
rfoot  0.326569438 -21.30610657 -36.86503983
rtoes  4.011740762 19.60967887 -101.803272
lfemur  -7.113490105 -17.23062325 -20.61729431
ltibia  3.166989088 -0.571423769 13.66532135
lfoot  0.775459528 -23.85861778 37.01578903
ltoes  -8.524965535 -18.15980453 -115.685165
329
root  34.84526206 36.51485894 -14.72658172 8.418179512 -3.801007032 3.528867245
lowerback  -8.280810356 -0.2770819664 -0.370651722
upperback  -3.310790062 0.0742380023 -3.281589985
thorax  1.221379995 0.1732009947 -3.172590017
lowerneck  -13.70339966 1.284980059 1.467100024
upperneck  15.30879974 0.8181959987 5.441850185
head  6.930990219 1.098930001 1.618510008
lclavicle  0 -4.497500157e-015 -2.743230041e-014
lhumerus  -46.35549927 28.01000023 66.52140045
lradius  0.004719055258 -6.507048965e-006 30.55971718
lwrist  4.824992743e-007 -3.790274832e-007 -26.91679955
lhand  -0 -36.7344017 -10.64540005
lfingers  90 7.125020027 -90
lthumb  94.73226356 -25.48760781 100.8892315
rclavicle  0 -4.497500157e-015 -2.743230041e-014
rhumerus  -52.4742012 -24.86000061 -58.22689819
rradius  -5.16745672e-007 2.214343908e-008 65.06220245
rwrist  -7.499573258e-005 0.03438235447 -168.5149994
rhand  -1.773190773e-031 5.316530228 -7.221600056
rfingers  -90 -7.125020027 -90
rthumb  -84.69577927 -8.859294504 -58.91700891
rfemur  -11.54236317 15.94578457 13.11274052
rtibia  -0.9583939314 -0.6446881294 20.32497978
rfoot  0.3277619779 -21.28082085 -36.84985733
rtoes  4.01469048 19.60909799 -101.8120613
lfemur  -7.110980034 -17.24640083 -20.63985062
ltibia  3.18259573 -0.5715402961 13.65696907
lfoot  0.7889194489 -23.86340523 37.03100967
ltoes  -8.503387353 -18.16965009 -115.6159487
330
root  34.84544829 36.51615353 -14.72577974 8.427565575 -3.797014713 3.532720804
lowerback  -8.259349823 -0.2636799812 -0.4056787491
upperback  -3.328939915 0.09429249913 -3.267790079
thorax  1.191910028 0.1835899949 -3.136480093
lowerneck  -13.69789982 1.257200003 1.434069991
upperneck  15.31960011 0.782580018 5.475689888
head  6.934000015 1.08386004 1.631590009
lclavicle  0 -4.497500157e-015 -2.743230041e-014
lhumerus  -46.34080124 27.98089981 66.58239746
lradius  0.004719055258 -6.507048965e-006 30.55587196
lwrist  4.824992743e-007 -3.790274832e-007 -26.86490059
lhand  -0 -36.74140167 -10.61260033
lfingers  90 7.125020027 -90
lthumb  94.72866131 -25.45513616 100.893747
rclavicle  0 -4.497500157e-015 -2.743230041e-014
rhumerus  -52.16770172 -25.22869873 -58.36050034
rradius  -5.16745672e-007 2.214343908e-008 63.38830185
rwrist  -7.499573258e-005 0.03438235447 -167.8099976
rhand  -1.773972787e-031 5.581369877 -7.289599895
rfingers  -90 -7.125020027 -90
rthumb  -84.66738218 -8.818441597 -58.66421958
rfemur  -11.55593681 15.93597984 13.10264492
rtibia  -0.9608639479 -0.6613211036 20.32815933
rfoot  0.3305288255 -21.30857086 -36.84220886
rtoes  4.023006265 19.60745799 -101.836841
lfemur  -7.144388676 -17.23295593 -20.63764191
ltibia  3.170828819 -0.5787451863 13.69551468
lfoot  0.7922475934 -23.87070847 37.00135803
ltoes  -8.521949191 -18.16118268 -115.6754873
